<svg xmlns="http://www.w3.org/2000/svg" viewBox="0.0188235342502594 11.600000381469727 279.8311767578125 47.5" data-asc="0.9" width="279.8311767578125" height="47.5"><defs/><g fill="#000000"><g transform="translate(0, 0)"><path d="M1.65 44.75Q0.65 44.75 0.32 44.10Q0 43.45 0.02 42.52Q0.05 41.60 0.05 40.80Q0.05 35.75 1.05 30.85Q2.05 25.95 3.40 21.10Q3.50 20.80 3.75 19.97Q4 19.15 4.30 18.20Q4.60 17.25 4.88 16.45Q5.15 15.65 5.25 15.35Q5.80 13.65 6.55 12.88Q7.30 12.10 8.70 12.10Q9.95 12.10 10.83 12.98Q11.70 13.85 12.28 15.07Q12.85 16.30 13.20 17.40Q14.05 20 14.95 22.67Q15.85 25.35 16.65 27.95Q17.05 29.25 17.75 29.25Q18.65 29.25 19.45 27.10Q19.85 26 20.43 24.42Q21 22.85 21.60 21.22Q22.20 19.60 22.68 18.30Q23.15 17 23.35 16.45Q24.15 14.40 25.13 13.13Q26.10 11.85 27.90 11.85Q29.25 11.85 30.10 12.77Q30.95 13.70 31.50 15.02Q32.05 16.35 32.40 17.60Q33.75 22.70 34.48 27.95Q35.20 33.20 35.20 38.40L35.20 40.35Q35 41 34.65 41.17Q34.30 41.35 33.40 41.35Q32.15 41.35 31.60 39.70Q31.30 38.80 31.20 37.85Q31.10 36.90 31 35.95Q30.50 30.85 30.13 27.77Q29.75 24.70 29.48 23Q29.20 21.30 29 20.38Q28.80 19.45 28.60 18.65Q28.45 17.75 27.75 17.75Q27 17.75 26.55 18.65Q26.25 19.55 25.68 21.25Q25.10 22.95 24.40 24.85Q23.70 26.75 23.15 28.30Q22.60 29.85 22.40 30.45Q22.15 31.10 21.70 32.23Q21.25 33.35 20.63 34.45Q20 35.55 19.23 36.33Q18.45 37.10 17.60 37.10Q16.80 37.10 16.15 36.42Q15.50 35.75 15.08 34.85Q14.65 33.95 14.40 33.35L10.25 21.10Q10.20 20.85 10.05 20.38Q9.90 19.90 9.58 19.47Q9.25 19.05 8.65 19.05Q8.10 19.05 7.78 19.55Q7.45 20.05 7.30 20.70Q7.15 21.35 7.10 21.75Q7 22.25 6.80 23.02Q6.60 23.80 6.40 24.65Q6.20 25.40 6.07 26.07Q5.95 26.75 5.85 27.10Q5.80 27.45 5.63 28.35Q5.45 29.25 5.30 30.25Q4.90 32.85 4.58 35.33Q4.25 37.80 3.95 40.70Q3.90 41.55 3.70 42.50Q3.50 43.45 3.03 44.10Q2.55 44.75 1.65 44.75ZM54 45Q50.40 45 47.30 43.42Q44.20 41.85 42.33 39.02Q40.45 36.20 40.45 32.45Q40.45 29.90 41.53 27.70Q42.60 25.50 44.30 23.50Q46 21.50 47.85 19.60Q48.70 18.75 49.80 18.38Q50.90 18 52.15 18Q55.60 18 58.65 18.72Q61.70 19.45 64.08 21.05Q66.45 22.65 67.80 25.20Q69.15 27.75 69.15 31.40Q69.15 34.40 67.88 36.90Q66.60 39.40 64.43 41.23Q62.25 43.05 59.55 44.02Q56.85 45 54 45M52.90 41.30Q55.20 41.30 57.48 40.65Q59.75 40 61.60 38.67Q63.45 37.35 64.58 35.35Q65.70 33.35 65.70 30.60Q65.70 28.10 64.63 26.32Q63.55 24.55 61.80 23.42Q60.05 22.30 58 21.75Q55.95 21.20 54 21.20Q53.20 21.20 52.23 21.32Q51.25 21.45 50.35 22.30Q49.25 23.35 48.13 24.42Q47 25.50 46.05 26.80Q45.10 28.05 44.50 29.60Q43.90 31.15 43.90 32.95Q43.90 35.85 45.13 37.70Q46.35 39.55 48.40 40.42Q50.45 41.30 52.90 41.30ZM87.90 45.75Q84.10 45.75 81.02 44.63Q77.95 43.50 76.15 41.08Q74.35 38.65 74.35 34.80Q74.35 31.75 75.38 28.85Q76.40 25.95 78.30 23.60Q80.20 21.25 82.85 19.88Q85.50 18.50 88.75 18.50Q91 18.50 92.82 19.35Q94.65 20.20 95.75 21.75Q96.85 23.30 96.85 25.45Q96.85 27.75 95.88 29.82Q94.90 31.90 93.25 33.50Q91.60 35.10 89.52 36.02Q87.45 36.95 85.20 36.95Q83.25 36.95 81.55 36.63Q79.85 36.30 78.40 35.60Q78.40 37.50 79.30 38.83Q80.20 40.15 81.60 40.98Q83 41.80 84.52 42.17Q86.05 42.55 87.35 42.55Q88.40 42.55 89.45 42.42Q90.50 42.30 91.75 42.30Q93.60 42.30 93.60 43.90Q93.60 45.15 91.85 45.50Q90.90 45.70 89.90 45.73Q88.90 45.75 87.90 45.75M85.20 32.95Q86.95 32.95 88.85 32.25Q90.75 31.55 92.07 30.05Q93.40 28.55 93.40 26.25Q93.40 24.20 92.13 22.92Q90.85 21.65 88.75 21.65Q86.85 21.65 85.02 22.52Q83.20 23.40 81.70 24.88Q80.20 26.35 79.30 28.20Q78.40 30.05 78.40 32Q79.55 32.60 81.30 32.77Q83.05 32.95 85.20 32.95ZM103.85 44.75Q102.60 44.75 102.42 43.85Q102.25 42.95 102.25 41.85L102.25 41.05L102.35 40.35Q102.40 40.05 102.50 39.65Q102.60 39.25 102.65 38.90Q102.75 38.15 102.88 37.48Q103 36.80 103.05 36.45Q103.15 35.70 103.33 34.05Q103.50 32.40 103.67 30.48Q103.85 28.55 103.97 26.95Q104.10 25.35 104.10 24.75Q104.10 24.45 104.15 23.22Q104.20 22 104.25 20.52Q104.30 19.05 104.35 17.85Q104.40 16.65 104.40 16.35Q104.40 15.60 104.50 14.67Q104.60 13.75 105.05 13.05Q105.50 12.35 106.50 12.35Q107.20 12.35 107.97 13.22Q108.75 14.10 109.10 14.65Q109.30 15 109.47 15.27Q109.65 15.55 109.80 15.80Q111.40 18.40 113.28 21.25Q115.15 24.10 116.90 27Q117.75 28.40 119.08 30.27Q120.40 32.15 121.78 33.98Q123.15 35.80 124.20 37.10Q125.10 38.25 125.70 38.25Q126.25 38.25 126.55 36.90Q127.25 33.30 127.70 28.77Q128.15 24.25 128.15 20Q128.15 18.15 128.05 16.47Q127.95 14.80 127.75 13.40Q127.65 12.55 128.22 12.07Q128.80 11.60 129.60 11.60Q130.55 11.60 130.93 11.85Q131.30 12.10 131.45 12.70Q131.75 14.05 131.85 16Q131.95 17.95 131.95 19.70Q131.95 26.55 131.50 31.73Q131.05 36.90 129.75 39.77Q128.45 42.65 125.90 42.65Q124.50 42.65 123.15 41.67Q121.80 40.70 120.63 39.30Q119.45 37.90 118.55 36.55Q115.75 32.35 113.97 29.57Q112.20 26.80 111.13 25.15Q110.05 23.50 109.50 22.67Q108.95 21.85 108.67 21.60Q108.40 21.35 108.10 21.35Q108.10 22.15 108.02 23.82Q107.95 25.50 107.80 27.70Q107.65 29.90 107.45 32.20Q107.25 34.50 107 36.58Q106.75 38.65 106.50 40.05Q106.35 40.80 106.10 41.92Q105.85 43.05 105.33 43.90Q104.80 44.75 103.85 44.75ZM144.45 58.10Q144.30 58.10 144 57.70Q143.70 57.30 143.70 56.50Q143.70 55.80 143.88 55.10Q144.05 54.40 144.35 53.70Q144.70 52.95 145.05 52.20Q145.40 51.45 145.75 50.70Q146.05 49.95 146.47 48.80Q146.90 47.65 147.30 46.48Q147.70 45.30 147.97 44.45Q148.25 43.60 148.25 43.50L148.25 42.20Q145.15 42.20 143.10 41.05Q141.05 39.90 139.85 38Q138.65 36.10 138.10 33.77Q137.55 31.45 137.38 29.02Q137.20 26.60 137.20 24.50Q137.20 23.50 137.25 22.55Q137.30 21.60 137.50 20.65Q137.75 19.50 138.13 19.13Q138.50 18.75 138.85 18.75Q140 18.75 140.47 19.63Q140.95 20.50 140.95 22.15Q140.95 23.30 140.80 24.32Q140.65 25.35 140.65 26.55L140.65 27.05Q140.65 27.50 140.82 28.77Q141 30.05 141.20 31.35Q141.40 32.65 141.50 33.30Q141.75 34.40 142.25 35.63Q142.75 36.85 143.67 37.70Q144.60 38.55 146.05 38.55Q148 38.55 149.52 37.13Q151.05 35.70 152.32 33.42Q153.60 31.15 154.65 28.65Q155.05 27.80 155.40 26.95Q155.75 26.10 156.10 25.30Q156.50 24.50 156.85 23.80Q157.20 23.10 157.60 22.45Q158.40 21.15 159.07 20.60Q159.75 20.05 160.40 20.05Q161.05 20.05 161.38 20.40Q161.70 20.75 161.70 21.60Q161.70 23.15 161.17 24.65Q160.65 26.15 159.85 27.65Q159 29.20 158.05 30.70Q157.10 32.20 156.40 33.70Q156 34.60 155.32 36.13Q154.65 37.65 153.92 39.27Q153.20 40.90 152.67 42.15Q152.15 43.40 152.05 43.70Q152 43.95 151.65 44.83Q151.30 45.70 150.88 46.90Q150.45 48.10 150 49.33Q149.55 50.55 149.22 51.42Q148.90 52.30 148.80 52.55Q148.50 53.45 147.95 54.75Q147.40 56.05 146.57 57.08Q145.75 58.10 144.45 58.10ZM175.25 45.50Q173.00 45.50 171.07 44.50Q169.15 43.50 167.85 41.80Q166.55 40.10 166.15 38L166.15 35.35Q166.15 32.50 167.20 29.60Q168.25 26.70 170.12 24.25Q172.00 21.80 174.57 20.32Q177.15 18.85 180.15 18.85Q182.05 18.85 183.82 19.50Q185.60 20.15 187.00 21Q187.30 18.90 187.75 18.10Q188.20 17.30 189.30 17.30Q190.15 17.30 190.50 17.82Q190.85 18.35 190.85 19.65Q190.85 22.65 190.72 25.52Q190.60 28.40 190.60 31.40Q190.60 33.80 190.87 36.35Q191.15 38.90 191.15 41.25Q191.15 42 191.17 42.75Q191.20 43.50 190.92 43.98Q190.65 44.45 189.80 44.45Q188.60 44.45 188.02 43.33Q187.45 42.20 187.25 40.60Q187.05 39 186.85 37.60Q186.35 38.95 185.17 40.25Q184.00 41.55 182.82 42.48Q181.65 43.40 181.02 43.77Q180.40 44.15 181.00 43.70Q179.90 44.50 178.27 45Q176.65 45.50 175.25 45.50M174.75 42.35Q177.00 42.35 178.95 41.05Q180.90 39.75 182.37 37.70Q183.85 35.65 184.67 33.40Q185.50 31.15 185.50 29.25Q185.50 28.30 185.27 27.07Q185.05 25.85 184.45 24.70Q183.85 23.55 182.82 22.80Q181.80 22.05 180.15 22.05Q178.00 22.05 176.05 23.42Q174.10 24.80 172.57 26.93Q171.05 29.05 170.20 31.30Q169.35 33.55 169.35 35.35Q169.35 36.70 169.82 38.35Q170.30 40 171.47 41.17Q172.65 42.35 174.75 42.35ZM199.70 44Q198.95 44 198.60 43.65Q198.25 43.30 198.10 42.65Q197.85 41.80 197.85 40.85L197.85 38.90Q197.85 37.30 197.95 36.13Q198.05 34.95 198.05 33.55Q198.05 33.05 198.02 32.48Q198.00 31.90 197.95 31.25Q197.75 28.80 197.40 26.10Q197.05 23.40 197.05 21.20L197.05 19.25Q197.35 18.55 197.62 18.40Q197.90 18.25 198.40 18.25Q199.60 18.25 200.10 19.17Q200.60 20.10 200.77 21.32Q200.95 22.55 201.00 23.45Q201.05 23.80 201.17 24.95Q201.30 26.10 201.45 27.52Q201.60 28.95 201.72 30.25Q201.85 31.55 201.85 32.25Q202.65 30.60 203.75 28.82Q204.85 27.05 205.97 25.50Q207.10 23.95 208.00 23Q209.30 21.55 211.07 20.72Q212.85 19.90 214.60 19.90Q216.65 19.90 218.20 21.05Q219.75 22.20 220.87 24.05Q222.00 25.90 222.75 28.02Q223.50 30.15 223.95 32.15Q224.60 34.80 224.92 36.80Q225.25 38.80 225.50 41.35Q225.50 42.45 225.05 43.10Q224.60 43.75 223.95 43.75Q223.00 43.75 222.60 43.33Q222.20 42.90 222.05 41.95Q221.70 40.05 221.37 37.65Q221.05 35.25 220.50 32.77Q219.95 30.30 218.90 28.25Q218.50 27.30 217.90 26.30Q217.30 25.30 216.45 24.60Q215.60 23.90 214.35 23.90Q212.70 23.90 211.02 25.35Q209.35 26.80 207.85 29.10Q206.35 31.40 205.10 34.02Q203.85 36.65 203.00 39Q202.75 39.80 202.37 40.77Q202.00 41.75 201.60 42.60Q201.25 43.30 200.82 43.65Q200.40 44 199.70 44ZM242.50 59.10Q240.75 59.10 239.10 58.60Q237.45 58.10 236.32 57.05Q235.20 56 234.90 54.40Q234.80 53.85 235.27 53.50Q235.75 53.15 236.55 53.15Q237.00 53.15 237.35 53.35Q237.70 53.55 238.05 53.80Q238.20 53.95 238.35 54.08Q238.50 54.20 238.65 54.30Q239.30 54.80 240.20 55.40Q241.10 56 242.45 56Q244.50 56 245.90 54.83Q247.30 53.65 248.22 51.83Q249.15 50 249.62 48.05Q250.10 46.10 250.25 44.60Q250.45 42.80 250.60 40.55Q250.75 38.30 250.75 36.60Q250.75 35.10 250.60 34.45Q249.50 35.95 248.22 37.30Q246.95 38.65 245.87 39.65Q244.80 40.65 244.30 41.10Q243.40 41.85 242.17 42.65Q240.95 43.45 239.62 44Q238.30 44.55 237.05 44.55Q235.20 44.55 233.60 43.65Q232.00 42.75 231.02 41.20Q230.05 39.65 230.05 37.75Q230.05 34.30 231.45 30.90Q232.85 27.50 235.32 24.67Q237.80 21.85 241.07 20.17Q244.35 18.50 248.10 18.50Q249.70 18.50 250.95 19.20Q252.20 19.90 252.20 21.10Q252.20 21.60 251.80 22.20Q251.40 22.80 250.80 22.80Q250.55 22.80 250.25 22.65Q249.65 22.30 248.90 22.07Q248.15 21.85 247.30 21.85Q246.45 21.85 245.55 22.15Q243.10 22.80 240.97 24.27Q238.85 25.75 237.22 27.80Q235.60 29.85 234.70 32.20Q233.80 34.55 233.80 36.95Q233.80 38.95 234.37 40.17Q234.95 41.40 236.80 41.40Q238.00 41.40 239.27 40.65Q240.55 39.90 241.67 38.85Q242.80 37.80 243.50 36.95Q244.55 35.75 245.70 34.30Q246.85 32.85 247.90 31.48Q248.95 30.10 249.67 29.05Q250.40 28 250.60 27.65Q251.05 27.10 251.35 26.97Q251.65 26.85 252.20 26.85Q253.10 26.85 253.50 27.43Q253.90 28 254.05 28.80Q254.20 29.60 254.30 30.30L254.30 34.10Q254.30 36.15 254.20 38.77Q254.10 41.40 253.77 44.23Q253.45 47.05 252.70 49.67Q251.95 52.30 250.65 54.45Q249.35 56.60 247.35 57.85Q245.35 59.10 242.50 59.10ZM269.45 45.75Q268.10 45.75 266.30 45.60Q264.50 45.45 262.77 44.95Q261.05 44.45 259.92 43.35Q258.80 42.25 258.80 40.40Q258.80 38 260.70 38Q261.35 38 261.70 38.45L262.15 39.05Q262.30 39.25 262.42 39.48Q262.55 39.70 262.75 39.95Q263.45 41 264.75 41.90Q266.05 42.80 268.65 42.80Q270.15 42.80 271.95 42.33Q273.75 41.85 275.02 40.80Q276.30 39.75 276.30 38Q276.30 36.55 275.40 35.70Q274.50 34.85 273.40 34.35Q272.90 34.10 272.27 33.85Q271.65 33.60 270.95 33.40Q270.30 33.20 269.65 33Q269.00 32.80 268.30 32.60Q266.50 32 265.02 31.23Q263.55 30.45 262.67 29.25Q261.80 28.05 261.80 26.20Q261.80 23.90 263.32 22.35Q264.85 20.80 267.17 20.02Q269.50 19.25 271.90 19.25Q272.80 19.25 274.00 19.40Q275.20 19.55 276.35 19.95Q277.50 20.35 278.27 21.07Q279.05 21.80 279.05 23Q279.05 23.60 278.82 24.02Q278.60 24.45 278.15 24.45Q277.85 24.45 277.65 24.35Q275.45 23.35 273.97 22.90Q272.50 22.45 271.40 22.45Q270.75 22.45 269.72 22.63Q268.70 22.80 267.70 23.17Q266.70 23.55 266.02 24.22Q265.35 24.90 265.35 25.95Q265.35 27.85 268.25 29.10Q269.30 29.50 270.60 29.90Q271.90 30.30 273.30 30.85Q275.10 31.50 276.60 32.40Q278.10 33.30 278.97 34.58Q279.85 35.85 279.85 37.75Q279.85 40.60 278.40 42.38Q276.95 44.15 274.60 44.95Q272.25 45.75 269.45 45.75Z"/></g></g></svg>